Coordinates
version=1
nRows=11
nColumns=36
inDegrees=yes

Units are S.I. units (second, meters, Newtons, ...)
If the header above contains a line with 'inDegrees', this indicates whether rotational values are in degrees (yes) or radians (no).

endheader
time	pelvis_tilt	pelvis_list	pelvis_rotation	pelvis_tx	pelvis_ty	pelvis_tz	hip_flexion_r	hip_adduction_r	hip_rotation_r	knee_angle_r	knee_angle_r_beta	ankle_angle_r	subtalar_angle_r	mtp_angle_r	hip_flexion_l	hip_adduction_l	hip_rotation_l	knee_angle_l	knee_angle_l_beta	ankle_angle_l	subtalar_angle_l	mtp_angle_l	lumbar_extension	lumbar_bending	lumbar_rotation	arm_flex_r	arm_add_r	arm_rot_r	elbow_flex_r	pro_sup_r	arm_flex_l	arm_add_l	arm_rot_l	elbow_flex_l	pro_sup_l
      5.01666670	     -2.79622809	     -2.07033323	      8.04528105	      0.77808317	      0.89969398	      0.02391024	      4.43019852	     -7.76854875	    -15.83174053	      9.26660906	      0.16173284	      9.25244797	    -10.38813216	     -7.49999987	      6.87193891	    -12.40704990	     -3.19008423	     10.17635816	      0.17761096	      5.44411975	     -6.74964836	     -7.49999987	     -3.08457548	      4.75279810	     -3.60599596	     48.70998502	     11.34032998	     70.24006334	    119.19457219	     98.81026673	     56.16389614	      8.57267646	     71.26648173	    122.69026710	    105.54609372
      5.03333330	     -2.79717451	     -2.07078103	      7.98751456	      0.77203511	      0.89920271	      0.02110987	      4.61698568	     -7.82629577	    -15.76389057	      9.41886713	      0.16439024	      9.30254398	    -10.27527776	     -7.49999987	      7.02475545	    -12.42132381	     -3.12901352	     10.36804473	      0.18095652	      5.40711322	     -6.84021735	     -7.49999987	     -3.35013924	      4.87461344	     -3.89738717	     49.20934110	     11.43818179	     69.98829875	    119.01097989	     98.84084279	     56.87405984	      8.64255934	     70.83471820	    122.51267943	    105.61530625
      5.05000000	     -2.68296036	     -2.06797406	      7.95353512	      0.77188909	      0.90188547	      0.02108778	      4.67399358	     -7.90321295	    -15.91602904	      9.59577800	      0.16747792	      9.49768167	     -9.91342408	     -7.49999987	      7.09120544	    -12.39695483	     -2.72476724	     10.60846086	      0.18515257	      5.29205569	     -7.38528652	     -7.49999987	     -3.80226984	      5.09376500	     -4.28928424	     49.77896537	     11.97702322	     71.03403911	    118.76012159	     99.36565921	     57.08893147	      8.25991211	     70.43770814	    122.34554520	    107.15876961
      5.06666670	     -2.68197235	     -2.07459650	      7.81893487	      0.77190718	      0.89930806	      0.02113965	      4.84191994	     -7.94291897	    -15.74147613	      9.70131342	      0.16931986	      9.43267217	     -9.93933947	     -7.49999987	      7.19892021	    -12.41366386	     -2.74861333	     10.78735506	      0.18827486	      5.32148540	     -7.37562903	     -7.49999987	     -3.88144089	      5.16951856	     -4.62142745	     49.21483296	     12.24175323	     70.90811370	    118.65442493	    100.19248195	     57.20898069	      8.00314906	     70.15396906	    122.32070844	    107.65669176
      5.08333330	     -2.70961865	     -2.07694853	      7.64767233	      0.77184158	      0.89665115	      0.02145818	      5.04137591	     -8.00596524	    -15.61521410	      9.80362941	      0.17110561	      9.37921273	     -9.93637893	     -7.49999987	      7.33542410	    -12.42333201	     -2.63158007	     11.03776002	      0.19264525	      5.40043466	     -7.58977847	     -7.49999987	     -4.02649898	      5.24860915	     -4.41229783	     49.25391995	     11.90642793	     70.78600456	    118.73863965	    100.41373308	     57.76205441	      8.11333895	     70.26766799	    122.23720734	    107.70009351
      5.10000000	     -2.72926419	     -2.08008495	      7.49135009	      0.77180958	      0.89966293	      0.02131732	      5.22915729	     -8.07036651	    -15.55667241	      9.89175750	      0.17264374	      9.33222648	     -9.81894098	     -7.49999987	      7.43027336	    -12.42551826	     -2.56176166	     11.18857583	      0.19527749	      5.44072417	     -7.70038841	     -7.49999987	     -4.25682734	      5.34989844	     -4.34116130	     48.84028616	     11.21660582	     71.23213258	    118.66890735	    100.78383819	     57.80169169	      8.16208611	     70.84815958	    122.39162053	    107.67714211
      5.11666670	     -2.71233098	     -2.13394274	      7.38733068	      0.76555416	      0.90184528	      0.02436523	      5.42823470	     -8.03661020	    -15.46219326	      9.99372822	      0.17442346	      9.22822165	     -9.71532740	     -7.49999987	      7.65786573	    -12.53236097	     -2.51871727	     11.38844331	      0.19876583	      5.36122323	     -7.71226628	     -7.49999987	     -4.85537678	      5.35873100	     -4.34454118	     48.38636682	     10.72942198	     71.51508330	    118.28054848	    100.79833294	     57.80580871	      7.83277512	     70.96579530	    122.31525197	    107.68681239
      5.13333330	     -2.99925997	     -2.23013110	      7.35249931	      0.76582027	      0.90165896	      0.02431597	      5.94326984	     -8.01341219	    -15.38174739	     10.09056184	      0.17611353	      9.23072466	     -9.67265504	     -7.49999987	      8.27119667	    -12.63518634	     -2.43232345	     11.63243642	      0.20302432	      5.21665908	     -8.01694823	     -7.49999987	     -5.20579877	      5.61964798	     -4.23176733	     47.99630697	     10.29721767	     71.73354909	    117.41583536	    100.86387957	     57.92702149	      7.51414150	     71.20145897	    122.36666118	    108.00875951
      5.15000000	     -3.24242161	     -2.29511118	      7.28534394	      0.75941722	      0.89804857	      0.02138468	      6.59956813	     -8.09424834	    -15.29243930	     10.38237486	      0.18120663	      9.18714927	     -9.62589648	     -7.49999987	      9.05576749	    -12.71968222	     -2.41357329	     12.17400813	      0.21247653	      5.21183258	     -8.08761031	     -7.49999987	     -6.00069963	      5.82769520	     -4.39579682	     48.43265359	      9.92194529	     71.31598588	    116.93724125	    100.69668364	     58.85254305	      7.70853260	     70.95156681	    122.10147262	    107.72387362
      5.16666670	     -3.31416284	     -2.37643917	      7.18929806	      0.76587905	      0.89901795	      0.02417902	      6.99342748	     -8.10182304	    -15.17726115	     10.67450234	      0.18630521	      9.10762606	     -9.70270924	     -7.49999987	      9.49422216	    -12.83325267	     -2.28459134	     12.62046394	      0.22026865	      5.12449242	     -8.52539943	     -7.49999987	     -6.76913941	      5.99488314	     -4.71230393	     47.89165440	      9.63021644	     70.32790218	    116.26999052	    100.72514137	     59.03838072	      8.00133756	     70.08757436	    120.65972927	    107.71656368
      5.18333330	     -3.77516003	     -2.48231216	      7.13381436	      0.75412489	      0.89209632	      0.02475216	      8.14861871	     -8.21877893	    -14.94661485	     11.39846825	      0.19894080	      9.08034874	     -9.92582367	     -7.49999987	     10.70801474	    -12.98701072	     -2.10031389	     13.40800110	      0.23401377	      4.98864125	     -8.96173976	     -7.49999987	     -7.62735007	      6.15982804	     -5.46144380	     48.60112168	      9.93960763	     69.53897629	    116.25304914	    100.82113062	     60.98826804	      7.88887034	     68.91394423	    119.85221147	    107.80347790
